<?xml version="1.0" standalone="no"?>
<!DOCTYPE svg PUBLIC "-//W3C//DTD SVG 20010904//EN"
 "http://www.w3.org/TR/2001/REC-SVG-20010904/DTD/svg10.dtd">
<svg version="1.0" xmlns="http://www.w3.org/2000/svg"
 width="512.000000pt" height="512.000000pt" viewBox="0 0 512.000000 512.000000"
 preserveAspectRatio="xMidYMid meet">
<metadata>
Created by potrace 1.16, written by Peter Selinger 2001-2019
</metadata>
<g transform="translate(0.000000,512.000000) scale(0.100000,-0.100000)"
fill="#000000" stroke="none">
<path d="M2835 4458 c-7 -18 -983 -3662 -987 -3684 -2 -14 30 -26 192 -70 107
-29 202 -53 211 -54 9 0 19 10 23 23 3 12 226 846 495 1852 270 1006 487 1833
483 1836 -8 8 -381 109 -401 109 -6 0 -14 -6 -16 -12z"/>
<path d="M879 3224 c-360 -383 -655 -700 -657 -704 -3 -7 1380 -1311 1398
-1318 7 -3 300 300 300 311 0 3 -219 211 -487 463 -269 251 -512 480 -542 509
l-54 53 504 536 c277 295 505 542 507 549 2 10 -286 287 -308 295 -4 2 -302
-311 -661 -694z"/>
<path d="M3425 3779 c-82 -77 -150 -147 -150 -154 0 -8 225 -253 500 -546 275
-293 501 -536 503 -539 1 -4 -235 -230 -526 -502 -290 -273 -534 -503 -541
-512 -12 -14 6 -36 134 -171 81 -86 151 -154 156 -153 17 7 1400 1311 1397
1318 -5 13 -1309 1400 -1316 1400 -4 0 -74 -64 -157 -141z"/>
</g>
</svg>
